<svg width="17" height="17" viewBox="0 0 17 17" fill="none" xmlns="http://www.w3.org/2000/svg">
<path fill-rule="evenodd" clip-rule="evenodd" d="M2.8335 8.50008C2.8335 8.10888 3.15063 7.79175 3.54183 7.79175H13.4585C13.8497 7.79175 14.1668 8.10888 14.1668 8.50008C14.1668 8.89128 13.8497 9.20841 13.4585 9.20841H3.54183C3.15063 9.20841 2.8335 8.89128 2.8335 8.50008Z" fill="#252B42"/>
<path fill-rule="evenodd" clip-rule="evenodd" d="M9.00103 3.04072C9.27765 3.31734 9.27765 3.76583 9.00103 4.04245L4.54356 8.49992L9.00103 12.9574C9.27765 13.234 9.27765 13.6825 9.00103 13.9591C8.72441 14.2357 8.27592 14.2357 7.9993 13.9591L3.04096 9.00079C2.76434 8.72416 2.76434 8.27567 3.04096 7.99905L7.9993 3.04072C8.27592 2.7641 8.72441 2.7641 9.00103 3.04072Z" fill="#252B42"/>
</svg>
