<svg width="42" height="40" viewBox="0 0 42 40" fill="none" xmlns="http://www.w3.org/2000/svg">
<path fill-rule="evenodd" clip-rule="evenodd" d="M40.129 4.87665C40.2639 5.01426 40.3709 5.17775 40.4439 5.35773C40.5169 5.53772 40.5545 5.73067 40.5545 5.92554C40.5545 6.1204 40.5169 6.31335 40.4439 6.49334C40.3709 6.67333 40.2639 6.83681 40.129 6.97443L19.8531 27.7152C19.7186 27.8531 19.5588 27.9626 19.3828 28.0373C19.2069 28.112 19.0182 28.1504 18.8277 28.1504C18.6372 28.1504 18.4486 28.112 18.2727 28.0373C18.0967 27.9626 17.9369 27.8531 17.8024 27.7152L9.11271 18.8263C8.97806 18.6885 8.87125 18.525 8.79837 18.345C8.7255 18.1651 8.68799 17.9722 8.68799 17.7774C8.68799 17.5826 8.7255 17.3897 8.79837 17.2097C8.87125 17.0298 8.97806 16.8662 9.11271 16.7285C9.24737 16.5908 9.40723 16.4815 9.58316 16.4069C9.7591 16.3324 9.94766 16.294 10.1381 16.294C10.3285 16.294 10.5171 16.3324 10.693 16.4069C10.869 16.4815 11.0288 16.5908 11.1635 16.7285L18.8277 24.5715L38.0782 4.87665C38.2128 4.73868 38.3726 4.62922 38.5485 4.55454C38.7245 4.47985 38.9131 4.44141 39.1036 4.44141C39.2941 4.44141 39.4827 4.47985 39.6587 4.55454C39.8346 4.62922 39.9944 4.73868 40.129 4.87665Z" fill="#2DC071"/>
<path fill-rule="evenodd" clip-rule="evenodd" d="M18.8276 4.44398C15.6767 4.44398 12.5966 5.39974 9.9768 7.1904C7.35696 8.98106 5.31504 11.5262 4.10925 14.504C2.90347 17.4817 2.58799 20.7584 3.20269 23.9195C3.81739 27.0807 5.33467 29.9844 7.56267 32.2635C9.79066 34.5426 12.6293 36.0946 15.7196 36.7234C18.8099 37.3522 22.0131 37.0295 24.9242 35.7961C27.8352 34.5627 30.3233 32.4739 32.0738 29.794C33.8243 27.1141 34.7586 23.9634 34.7586 20.7403C34.7586 20.3474 34.9112 19.9705 35.1828 19.6927C35.4544 19.4149 35.8228 19.2588 36.2069 19.2588C36.591 19.2588 36.9594 19.4149 37.231 19.6927C37.5026 19.9705 37.6552 20.3474 37.6552 20.7403C37.6547 24.9798 36.2866 29.1007 33.7632 32.4638C31.2399 35.827 27.7022 38.2444 23.6988 39.3413C19.6954 40.4382 15.4501 40.1532 11.6212 38.5304C7.79233 36.9077 4.59385 34.038 2.52184 30.3664C0.449825 26.6947 -0.379945 22.4263 0.161218 18.223C0.70238 14.0198 2.58423 10.1167 5.51493 7.11901C8.44562 4.12132 12.2614 2.19657 16.3704 1.64327C20.4795 1.08997 24.6522 1.93904 28.2414 4.05879C28.4145 4.15141 28.5674 4.27888 28.6911 4.43354C28.8148 4.5882 28.9066 4.76685 28.961 4.95874C29.0154 5.15063 29.0313 5.3518 29.0078 5.55015C28.9842 5.7485 28.9217 5.93992 28.824 6.11291C28.7262 6.2859 28.5953 6.43687 28.439 6.55674C28.2827 6.67662 28.1044 6.76292 27.9146 6.81046C27.7249 6.85799 27.5278 6.86578 27.335 6.83335C27.1423 6.80092 26.958 6.72895 26.7931 6.62176C24.3723 5.18973 21.6241 4.43838 18.8276 4.44398Z" fill="#2DC071"/>
</svg>
