<svg width="25" height="30" viewBox="0 0 25 30" fill="none" xmlns="http://www.w3.org/2000/svg">
<path d="M21.875 6H18.75C18.75 2.685 15.9531 0 12.5 0C9.04687 0 6.25 2.685 6.25 6H3.125C1.40625 6 0 7.35 0 9V27C0 28.65 1.40625 30 3.125 30H21.875C23.5938 30 25 28.65 25 27V9C25 7.35 23.5938 6 21.875 6ZM9.375 12C9.375 12.825 8.67188 13.5 7.8125 13.5C6.95312 13.5 6.25 12.825 6.25 12V9H9.375V12ZM12.5 3C14.2188 3 15.625 4.35 15.625 6H9.375C9.375 4.35 10.7812 3 12.5 3ZM18.75 12C18.75 12.825 18.0469 13.5 17.1875 13.5C16.3281 13.5 15.625 12.825 15.625 12V9H18.75V12Z" fill="#4281A4"/>
</svg>
