<svg width="35" height="35" viewBox="0 0 30 30" fill="none" xmlns="http://www.w3.org/2000/svg">
<path d="M23.75 8.75H13.75V17.5H3.75V6.25H1.25V25H3.75V21.25H26.25V25H28.75V13.75C28.75 12.4239 28.2232 11.1521 27.2855 10.2145C26.3479 9.27678 25.0761 8.75 23.75 8.75ZM8.75 16.25C9.74456 16.25 10.6984 15.8549 11.4017 15.1517C12.1049 14.4484 12.5 13.4946 12.5 12.5C12.5 11.5054 12.1049 10.5516 11.4017 9.84835C10.6984 9.14509 9.74456 8.75 8.75 8.75C7.75544 8.75 6.80161 9.14509 6.09835 9.84835C5.39509 10.5516 5 11.5054 5 12.5C5 13.4946 5.39509 14.4484 6.09835 15.1517C6.80161 15.8549 7.75544 16.25 8.75 16.25Z" fill="#4281A4"/>
</svg>
