<svg width="35" height="35" viewBox="0 0 30 30" fill="none" xmlns="http://www.w3.org/2000/svg">
<path d="M6.68699 0L2.93293 0.932635L0 7.74209L2.25542 9.23808L4.11585 5.53853L5.271 5.86873L4.25 15.9835H14.2683L14.8916 10.0602L14.9526 9.51436H15.2575L14.8916 5.86873L16.0501 5.53853L17.9065 9.23808L20.1626 7.74209L17.229 0.932635L13.4756 0C13.103 0.260788 12.6491 0.418473 12.1545 0.535726C11.5176 0.684652 10.7995 0.75406 10.0813 0.75406C9.36314 0.75406 8.64499 0.684652 8.00813 0.535726C7.51355 0.418473 7.05962 0.261461 6.68699 0ZM16.0501 10.7273L15.9485 11.6707H28.0623L27.9607 10.7273H16.0501ZM15.8198 12.8837L14.0108 30H18.2588L21.4092 15.3838H22.6016L25.752 30H30L28.1911 12.8837H15.8198Z" fill="#4281A4"/>
</svg>
