<svg width="30" height="30" viewBox="0 0 30 30" fill="none" xmlns="http://www.w3.org/2000/svg">
<path d="M1.59875 30V15.6L1.0815 15.1875C0.736677 14.8875 0.47022 14.55 0.282132 14.175C0.0940441 13.8 0 13.425 0 13.05C0 12.65 0.0940441 12.269 0.282132 11.907C0.47022 11.544 0.736677 11.225 1.0815 10.95L7.24138 6H14.7649L22.2884 0L26.1442 3.075C27.4608 4.1 28.4326 5.256 29.0596 6.543C29.6865 7.831 30 9.15 30 10.5C30 11.85 29.6865 13.1625 29.0596 14.4375C28.4326 15.7125 27.4608 16.875 26.1442 17.925L22.2884 21V30H1.59875ZM5.3605 27H18.5266V19.7625L23.4639 15.825C24.373 15.1 25.0627 14.2685 25.5329 13.3305C26.0031 12.3935 26.2382 11.45 26.2382 10.5C26.2382 9.55 26.0031 8.6125 25.5329 7.6875C25.0627 6.7625 24.373 5.9375 23.4639 5.2125L22.2884 4.2375L16.3166 9H8.7931L7.7116 9.8625L10.8621 12.375C11.7712 13.1 12.4608 13.925 12.931 14.85C13.4013 15.775 13.6364 16.7125 13.6364 17.6625C13.6364 18.6125 13.4013 19.5565 12.931 20.4945C12.4608 21.4315 11.7712 22.2625 10.8621 22.9875L5.3605 18.6V27Z" fill="#85BA09"/>
</svg>
