<svg width="30" height="22" viewBox="0 0 30 22" fill="none" xmlns="http://www.w3.org/2000/svg">
<path d="M23.1818 0C20.85 0 19.4318 0.45375 18.6136 0.83875C17.5636 0.31625 16.3636 0 15 0C13.6364 0 12.4364 0.31625 11.3864 0.83875C10.5682 0.45375 9.15 0 6.81818 0C2.72727 0 0 11 0 13.75C0 14.8912 1.8 15.9362 4.28182 16.3625C5.15455 19.4425 9.27273 21.7937 14.3182 22V16.115C13.5136 15.6063 12.2727 14.685 12.2727 13.75C12.2727 12.375 15 12.375 15 12.375C15 12.375 17.7273 12.375 17.7273 13.75C17.7273 14.685 16.4864 15.6063 15.6818 16.115V22C20.7273 21.7937 24.8455 19.4425 25.7182 16.3625C28.2 15.9362 30 14.8912 30 13.75C30 11 27.2727 0 23.1818 0ZM4.29545 13.5712C3.61364 13.4062 3.08182 13.2137 2.72727 13.0625C3.06818 9.25375 5.72727 3.3 6.88636 2.75C7.62273 2.75 8.18182 2.8325 8.68636 2.90125C5.82273 6.0775 4.69091 11.055 4.29545 13.5712ZM10.9091 11C10.5474 11 10.2006 10.8551 9.94485 10.5973C9.68912 10.3394 9.54545 9.98967 9.54545 9.625C9.54545 8.8825 10.1591 8.25 10.9091 8.25C11.2707 8.25 11.6176 8.39487 11.8733 8.65273C12.1291 8.91059 12.2727 9.26033 12.2727 9.625C12.2727 10.395 11.6591 11 10.9091 11ZM19.0909 11C18.7293 11 18.3824 10.8551 18.1267 10.5973C17.8709 10.3394 17.7273 9.98967 17.7273 9.625C17.7273 8.8825 18.3409 8.25 19.0909 8.25C19.4526 8.25 19.7994 8.39487 20.0551 8.65273C20.3109 8.91059 20.4545 9.26033 20.4545 9.625C20.4545 10.395 19.8409 11 19.0909 11ZM25.7045 13.5712C25.3091 11.055 24.1773 6.0775 21.3136 2.90125C21.8182 2.8325 22.3773 2.75 23.1136 2.75C24.2727 3.3 26.9318 9.25375 27.2727 13.0625C26.9318 13.2137 26.4 13.4062 25.7045 13.5712Z" fill="#4281A4"/>
</svg>
