<svg width="30" height="30" viewBox="0 0 33 30" fill="none" xmlns="http://www.w3.org/2000/svg">
    <path d="M16.4935 24.2489C16.701 24.2489 16.889 24.2132 17.0576 24.1416C17.2261 24.0701 17.3882 23.9628 17.5438 23.8197C18.3737 22.99 19.1646 22.1745 19.9167 21.3734C20.6688 20.5722 21.3236 19.7854 21.8811 19.0129C22.4387 18.2403 22.8861 17.4893 23.2232 16.7597C23.5603 16.03 23.7289 15.3219 23.7289 14.6352C23.7289 13.3763 23.3399 12.3319 22.5619 11.5021C21.7839 10.6724 20.8503 10.2575 19.7611 10.2575C19.0868 10.2575 18.4709 10.4077 17.9134 10.7082C17.3558 11.0086 16.8825 11.402 16.4935 11.8884C16.1045 11.402 15.6183 11.0086 15.0348 10.7082C14.4513 10.4077 13.8483 10.2575 13.2259 10.2575C12.1367 10.2575 11.2031 10.6724 10.4251 11.5021C9.64715 12.3319 9.25815 13.3763 9.25815 14.6352C9.25815 15.3219 9.42672 16.03 9.76385 16.7597C10.101 17.4893 10.5483 18.2403 11.1059 19.0129C11.6635 19.7854 12.3183 20.5722 13.0703 21.3734C13.8224 22.1745 14.6134 22.99 15.4432 23.8197C15.5988 23.9628 15.7609 24.0701 15.9295 24.1416C16.098 24.2132 16.2861 24.2489 16.4935 24.2489ZM7.15756 30C6.30177 30 5.56916 29.6638 4.95973 28.9914C4.35029 28.319 4.04558 27.5107 4.04558 26.5665V13.9056L2.48959 15.2361C2.12652 15.5222 1.73752 15.6366 1.32259 15.5794C0.907662 15.5222 0.57053 15.2933 0.311198 14.8927C0.0518664 14.4921 -0.0453831 14.0629 0.0194499 13.6052C0.0842829 13.1474 0.285265 12.7754 0.622397 12.4893L14.5874 0.686695C14.8727 0.457797 15.1774 0.286123 15.5016 0.171674C15.8257 0.0572246 16.1564 0 16.4935 0C16.8306 0 17.1613 0.0572246 17.4855 0.171674C17.8096 0.286123 18.1143 0.457797 18.3996 0.686695L32.4035 12.4893C32.7407 12.7754 32.9352 13.1474 32.987 13.6052C33.0389 14.0629 32.9352 14.4921 32.6758 14.8927C32.4165 15.2647 32.0794 15.4793 31.6644 15.5365C31.2495 15.5937 30.8735 15.4793 30.5363 15.1931L28.9415 13.9056V26.5665C28.9415 27.5107 28.6367 28.319 28.0273 28.9914C27.4179 29.6638 26.6853 30 25.8295 30H7.15756Z" fill="#4281A4"/>
</svg>
