<svg width="30" height="30" viewBox="0 0 30 30" fill="none" xmlns="http://www.w3.org/2000/svg">
<path d="M21.25 26.8834C19.8667 26.8834 18.75 25.4835 18.75 23.7502C18.75 22.0335 19.8667 20.6336 21.25 20.6336C22.6333 20.6336 23.75 22.0335 23.75 23.7502C23.75 25.4835 22.6333 26.8834 21.25 26.8834ZM15 13.7504C12.9333 13.7504 11.25 12.3505 11.25 10.6339C11.25 8.90056 12.9333 7.5006 15 7.5006C17.0667 7.5006 18.75 8.90056 18.75 10.6339C18.75 12.3505 17.0667 13.7504 15 13.7504ZM8.75002 26.8834C7.36668 26.8834 6.25002 25.4835 6.25002 23.7502C6.25002 22.0335 7.36668 20.6336 8.75002 20.6336C10.1333 20.6336 11.25 22.0335 11.25 23.7502C11.25 25.4835 10.1333 26.8834 8.75002 26.8834ZM15 8.75057C15.6833 8.75057 16.25 9.31722 16.25 10.0005C16.25 10.6838 15.6833 11.2505 15 11.2505C14.3167 11.2505 13.75 10.6838 13.75 10.0005C13.75 9.31722 14.3167 8.75057 15 8.75057ZM26.25 15.0004C25.7167 15.0004 25.2 15.1171 24.7333 15.3337C23.9333 14.3171 22.85 13.4504 21.55 12.7838C22.5 11.4505 23.0667 9.83387 23.0667 8.08392V7.98392C24.8833 7.6006 26.25 5.98397 26.25 4.03403C26.25 1.81742 24.4333 0.000800668 22.2167 0.000800668C21.0667 0.000800668 20 0.484121 19.3 1.25077C18.0146 0.433852 16.5231 0 15 0C13.477 0 11.9854 0.433852 10.7 1.25077C10 0.484121 8.93335 0.000800668 7.78335 0.000800668C5.56668 0.000800668 3.75002 1.81742 3.75002 4.03403C3.75002 5.96731 5.11668 7.58393 6.91668 7.98392V8.08392C6.91668 9.83387 7.50002 11.4672 8.43335 12.7838C7.15002 13.4504 6.06668 14.3171 5.26668 15.3337C4.69713 15.0772 4.07229 14.9676 3.44942 15.0151C2.82655 15.0626 2.22556 15.2657 1.7015 15.6056C1.17744 15.9456 0.747061 16.4116 0.449798 16.961C0.152535 17.5104 -0.00211279 18.1256 2.18014e-05 18.7503C2.18014e-05 20.8336 1.66669 22.5002 3.75002 22.5002H3.85002C3.78335 22.9002 3.75002 23.3335 3.75002 23.7502C3.75002 27.2001 5.98335 30 8.75002 30C10.4333 30 11.9167 28.95 12.8333 27.3501C13.5333 27.4501 14.25 27.5001 15 27.5001C15.75 27.5001 16.4667 27.4501 17.1667 27.3501C18.0833 28.95 19.5667 30 21.25 30C24.0167 30 26.25 27.2001 26.25 23.7502C26.25 23.3335 26.2167 22.9002 26.15 22.5002H26.25C28.3333 22.5002 30 20.8336 30 18.7503C30 16.667 28.3333 15.0004 26.25 15.0004Z" fill="#4281A4"/>
</svg>
